<svg xmlns="http://www.w3.org/2000/svg" width="65.527" height="52.492" viewBox="0 0 65.527 52.492">
  <path id="Path_5585" data-name="Path 5585" d="M59.565-218.369q-5.989,11.8-12.683,26.07l-10.04,21.842-2.114,4.228h-4.58q-1.938,0-7.222.352,4.4-9.512,10.393-25.894,1.233-3.523,6.517-17.439l3.171-8.455h3.347Q51.814-217.664,59.565-218.369Zm28.888,0q-5.989,11.8-12.683,26.07L65.554-170.457l-1.938,4.228H58.86q-1.761,0-7.046.352,4.4-9.512,10.393-25.894,1.233-3.523,6.517-17.439l3.171-8.455h3.347Q80.7-217.664,88.453-218.369Z" transform="translate(-22.926 218.369)" fill="#dda243"/>
</svg>
