<svg xmlns="http://www.w3.org/2000/svg" xmlns:xlink="http://www.w3.org/1999/xlink" width="47" height="30" viewBox="0 0 47 30">
  <defs>
    <clipPath id="clip-path">
      <rect id="Rectangle_10858" data-name="Rectangle 10858" width="47" height="30" transform="translate(863 753)" fill="#fff" stroke="#707070" stroke-width="1"/>
    </clipPath>
  </defs>
  <g id="Mask_Group_111" data-name="Mask Group 111" transform="translate(-863 -753)" clip-path="url(#clip-path)">
    <g id="Group_23572" data-name="Group 23572" transform="translate(869.584 753.584)">
      <path id="Path_7410" data-name="Path 7410" d="M21.294,25.085V3.789C21.294,2.026,20.146.6,18.728.6H3.165C1.748.6.6,2.026.6,3.789V22.52a2.564,2.564,0,0,0,2.565,2.565h.818" transform="translate(-0.184 -0.184)" fill="none" stroke="#3e3e3e" stroke-linecap="round" stroke-linejoin="round" stroke-width="1"/>
      <line id="Line_581" data-name="Line 581" x2="5.185" transform="translate(10.538 24.902)" fill="none" stroke="#3e3e3e" stroke-linecap="round" stroke-linejoin="round" stroke-width="1"/>
      <path id="Path_7411" data-name="Path 7411" d="M10.523,23.839a3.369,3.369,0,1,1-3.374-3.364A3.369,3.369,0,0,1,10.523,23.839Z" transform="translate(0.015 1.062)" fill="none" stroke="#3e3e3e" stroke-linecap="round" stroke-linejoin="round" stroke-width="1"/>
      <path id="Path_7412" data-name="Path 7412" d="M29.884,23.839a3.369,3.369,0,1,1-3.374-3.364A3.369,3.369,0,0,1,29.884,23.839Z" transform="translate(1.229 1.062)" fill="none" stroke="#3e3e3e" stroke-linecap="round" stroke-linejoin="round" stroke-width="1"/>
      <path id="Path_7413" data-name="Path 7413" d="M23.338,24.023H20.073V17.554" transform="translate(1.037 0.879)" fill="none" stroke="#3e3e3e" stroke-linecap="round" stroke-linejoin="round" stroke-width="1"/>
      <path id="Path_7414" data-name="Path 7414" d="M29.8,24.6h1.635a1.42,1.42,0,0,0,1.556-1.244V17.031a5.1,5.1,0,0,0-1.1-2.895A.5.5,0,0,0,31.787,14c-.067-.082-.12-.149-.163-.19a.467.467,0,0,0-.053-.067l.324.392A.5.5,0,0,0,31.787,14l-.163-.19a.467.467,0,0,0-.053-.067L28.3,9.287a2.636,2.636,0,0,0-2.016-.933H24.552" transform="translate(1.317 0.302)" fill="none" stroke="#3e3e3e" stroke-linecap="round" stroke-linejoin="round" stroke-width="1"/>
    </g>
  </g>
</svg>
