<svg xmlns="http://www.w3.org/2000/svg" xmlns:xlink="http://www.w3.org/1999/xlink" width="36" height="30" viewBox="0 0 36 30">
  <defs>
    <clipPath id="clip-path">
      <rect id="Rectangle_10857" data-name="Rectangle 10857" width="36" height="30" transform="translate(1258 753)" fill="#fff" stroke="#707070" stroke-width="1"/>
    </clipPath>
  </defs>
  <g id="Mask_Group_114" data-name="Mask Group 114" transform="translate(-1258 -753)" clip-path="url(#clip-path)">
    <g id="Group_23575" data-name="Group 23575" transform="translate(1354.562 723.486)">
      <path id="Path_7427" data-name="Path 7427" d="M2.167,5.942A10.5,10.5,0,0,0,4.658,2.119,2.2,2.2,0,0,1,6.32.817,19.311,19.311,0,0,1,9.284.6a19.25,19.25,0,0,1,2.973.217,2.2,2.2,0,0,1,1.661,1.3,10.63,10.63,0,0,0,2.491,3.823H2.167m0,18a10.594,10.594,0,0,1,2.492,3.823,2.181,2.181,0,0,0,1.661,1.3,19.571,19.571,0,0,0,2.964.207,19.514,19.514,0,0,0,2.973-.207,2.181,2.181,0,0,0,1.661-1.3,10.724,10.724,0,0,1,2.491-3.823Zm0-18A.425.425,0,0,0,2.1,6,3.489,3.489,0,0,0,.6,8.859V21.025a3.488,3.488,0,0,0,1.491,2.85c.028.019.047.047.076.066m14.319,0h-.076m6.834-8.3a.523.523,0,0,1-.179-.321c-.057-.906-.047-.906.66-1.463a.967.967,0,0,0,.188-.16.8.8,0,0,0,.151-1.066c-.339-.614-.7-1.227-1.057-1.84A.8.8,0,0,0,22,10.435c-.274.086-.519.217-.792.3a.58.58,0,0,1-.358-.009,1.209,1.209,0,0,1-.925-1.3,1.475,1.475,0,0,0-.028-.179.842.842,0,0,0-.859-.736c-.359-.009-.708-.009-1.067-.009-.339,0-.689.009-1.029.009a.828.828,0,0,0-.859.736c-.046.255-.056.519-.113.774a.562.562,0,0,1-.17.321c-.727.529-.755.519-1.586.179a.828.828,0,0,0-.132-.057.841.841,0,0,0-1.152.388c-.349.594-.689,1.189-1.029,1.784a.815.815,0,0,0,.208,1.114,7.718,7.718,0,0,1,.6.49.811.811,0,0,1,.188.407,1.168,1.168,0,0,1-.689,1.406.589.589,0,0,0-.161.142.8.8,0,0,0-.16,1.038c.349.613.7,1.236,1.066,1.84a.818.818,0,0,0,1.067.378c.255-.095.5-.217.755-.3a.42.42,0,0,1,.32,0c.812.406.812.406.953,1.293.01.066.01.123.019.18a.841.841,0,0,0,.878.755H18.8c.783,0,1.057-.189,1.114-.963a1.241,1.241,0,0,1,.793-1.189.691.691,0,0,1,.623-.037c.3.141.622.245.812.32a.867.867,0,0,0,.878-.424c.349-.6.7-1.208,1.038-1.822a.818.818,0,0,0-.207-1.133C23.658,15.957,23.431,15.815,23.243,15.645Zm-5.261-2.666a1.958,1.958,0,1,0,1.958,1.958A1.958,1.958,0,0,0,17.982,12.979Z" transform="translate(-91.162 29.6)" fill="none" stroke="#3e3e3e" stroke-linecap="round" stroke-linejoin="round" stroke-width="1"/>
    </g>
  </g>
</svg>
